<svg xmlns="http://www.w3.org/2000/svg" xmlns:xlink="http://www.w3.org/1999/xlink" width="95" height="95" viewBox="0 0 95 95">
  <defs>
    <filter id="Rectangle_9480" x="0" y="0" width="95" height="95" filterUnits="userSpaceOnUse">
      <feOffset dy="3" input="SourceAlpha"/>
      <feGaussianBlur stdDeviation="4" result="blur"/>
      <feFlood flood-color="#001d42" flood-opacity="0.161"/>
      <feComposite operator="in" in2="blur"/>
      <feComposite in="SourceGraphic"/>
    </filter>
  </defs>
  <g id="Group_96373" data-name="Group 96373" transform="translate(-288.236 -687.514)">
    <g transform="matrix(1, 0, 0, 1, 288.24, 687.51)" filter="url(#Rectangle_9480)">
      <g id="Rectangle_9480-2" data-name="Rectangle 9480" transform="translate(12 9)" fill="#ffbe00" stroke="#fff" stroke-width="2">
        <rect width="71" height="71" rx="35.5" stroke="none"/>
        <rect x="1" y="1" width="69" height="69" rx="34.5" fill="none"/>
      </g>
    </g>
    <g id="Icon_ionic-ios-chatbubbles" data-name="Icon ionic-ios-chatbubbles" transform="translate(316.684 711.454)">
      <path id="Path_99570" data-name="Path 99570" d="M38.144,29.333a2.307,2.307,0,0,1,.314-1.162,3.208,3.208,0,0,1,.2-.3,15.429,15.429,0,0,0,2.628-8.6c.029-8.78-7.38-15.9-16.54-15.9A16.426,16.426,0,0,0,8.53,16.03a15.3,15.3,0,0,0-.352,3.257,16.153,16.153,0,0,0,16.283,16.1,19.611,19.611,0,0,0,4.495-.733c1.076-.3,2.143-.686,2.419-.79a2.517,2.517,0,0,1,.886-.162,2.476,2.476,0,0,1,.962.19l5.4,1.914a1.288,1.288,0,0,0,.371.1.758.758,0,0,0,.762-.762,1.223,1.223,0,0,0-.048-.257Z" transform="translate(-1.674 -3.375)" fill="#080a08"/>
      <path id="Path_99571" data-name="Path 99571" d="M29.133,32.8c-.343.1-.781.2-1.257.3a17.574,17.574,0,0,1-3.238.429,16.153,16.153,0,0,1-16.283-16.1A18,18,0,0,1,8.5,15.4c.057-.409.124-.819.219-1.219.1-.428.209-.857.333-1.276l-.762.676A14.171,14.171,0,0,0,3.375,24.234a14.013,14.013,0,0,0,2.362,7.808c.219.333.343.59.3.762s-1.133,5.9-1.133,5.9a.764.764,0,0,0,.257.733.776.776,0,0,0,.486.171.683.683,0,0,0,.276-.057l5.342-2.1a1.488,1.488,0,0,1,1.143.019,16.026,16.026,0,0,0,5.78,1.143,14.955,14.955,0,0,0,11.436-5.247s.3-.419.657-.914C29.933,32.575,29.533,32.7,29.133,32.8Z" transform="translate(-3.375 0)" fill="#080a08"/>
    </g>
  </g>
</svg>
