<svg xmlns="http://www.w3.org/2000/svg" xmlns:xlink="http://www.w3.org/1999/xlink" width="64" height="64" viewBox="0 0 64 64">
  <defs>
    <clipPath id="clip-path">
      <rect id="Rectangle_14826" data-name="Rectangle 14826" width="64" height="64" rx="32" fill="#fff" stroke="#707070" stroke-width="1"/>
    </clipPath>
  </defs>
  <g id="Group_98632" data-name="Group 98632" clip-path="url(#clip-path)">
    <path id="Path_148857" data-name="Path 148857" d="M104.658,194.886" transform="translate(-82.586 -133.302)" fill="none" stroke="#707070" stroke-width="1"/>
    <g id="noun-test-3377817" transform="translate(-55.495 14.551)">
      <path id="Path_147394" data-name="Path 147394" d="M223.448,321.3a2.912,2.912,0,1,0-2.056-.853,2.909,2.909,0,0,0,2.056.853Zm0-4.725a1.819,1.819,0,1,1-1.283.533,1.817,1.817,0,0,1,1.283-.533Z" transform="translate(-141.135 -295.81)" stroke="#000" stroke-width="0.4"/>
      <path id="Path_147395" data-name="Path 147395" d="M169.252,263.885a1.469,1.469,0,0,0-1.045.511,1.485,1.485,0,0,0-.358,1.094l.044.495a.4.4,0,0,1-.164.355l-.4.29a1.5,1.5,0,0,0-.3,2.122l.3.391h0a.4.4,0,0,1,.055.388l-.18.46h0a1.493,1.493,0,0,0,.891,1.95l.465.164a.4.4,0,0,1,.257.3l.057.309-1.146,3.732a.547.547,0,0,0,.686.681l1.512-.473.943,1.274h0a.547.547,0,0,0,.44.221.532.532,0,0,0,.093,0,.547.547,0,0,0,.429-.38l.9-2.926a1.591,1.591,0,0,0,.257.025,1.71,1.71,0,0,0,.2-.019l.954,2.928h0a.547.547,0,0,0,.432.372.47.47,0,0,0,.087,0,.547.547,0,0,0,.44-.221l.943-1.274,1.512.473h0a.547.547,0,0,0,.684-.689l-1.165-3.59.087-.432a.4.4,0,0,1,.257-.3l.468-.164a1.5,1.5,0,0,0,.889-1.95l-.18-.459a.4.4,0,0,1,.055-.388l.3-.391a1.5,1.5,0,0,0-.3-2.122l-.4-.29a.4.4,0,0,1-.161-.355l.041-.495a1.487,1.487,0,0,0-1.4-1.616l-.492-.03h0a.4.4,0,0,1-.331-.21l-.23-.438a1.49,1.49,0,0,0-2.056-.6l-.429.243h0a.4.4,0,0,1-.394,0l-.429-.243h0a1.49,1.49,0,0,0-2.056.6l-.23.438a.4.4,0,0,1-.331.21Zm1.854,12.518-.531-.714h0a.547.547,0,0,0-.6-.2l-.894.273.574-1.87h0a1.479,1.479,0,0,0,1.061.156l.481-.115a.4.4,0,0,1,.377.112l.191.2Zm4.894-.911h0a.547.547,0,0,0-.6.2l-.547.733-.692-2.122.241-.246h0a.4.4,0,0,1,.375-.112l.481.115h0a1.479,1.479,0,0,0,1.014-.131l.6,1.84Zm-4.957-11.339.23-.438a.4.4,0,0,1,.24-.2.4.4,0,0,1,.309.035l.429.243a1.5,1.5,0,0,0,1.471,0l.429-.243a.408.408,0,0,1,.309-.046.4.4,0,0,1,.24.2l.23.438a1.5,1.5,0,0,0,1.236.8l.495.027a.391.391,0,0,1,.273.137.4.4,0,0,1,.1.32l-.044.492a1.5,1.5,0,0,0,.61,1.337l.4.276a.4.4,0,0,1,.082.566l-.3.391a1.5,1.5,0,0,0-.211,1.454l.18.462h0a.381.381,0,0,1,0,.309.391.391,0,0,1-.227.211l-.467.167a1.493,1.493,0,0,0-.963,1.11l-.115.484a.4.4,0,0,1-.481.309l-.481-.112h0a1.5,1.5,0,0,0-1.408.413l-.344.355h0a.407.407,0,0,1-.571,0l-.345-.355h0a1.511,1.511,0,0,0-1.074-.451,1.406,1.406,0,0,0-.336.038l-.481.112h0a.4.4,0,0,1-.306-.052.4.4,0,0,1-.175-.257l-.1-.484a1.493,1.493,0,0,0-.963-1.11l-.465-.167a.388.388,0,0,1-.23-.211.381.381,0,0,1,0-.309l.18-.462h0a1.5,1.5,0,0,0-.211-1.454l-.3-.391a.4.4,0,0,1,.082-.566l.4-.29a1.5,1.5,0,0,0,.61-1.337l-.044-.478a.4.4,0,0,1,.1-.3.391.391,0,0,1,.273-.137l.495-.027a1.5,1.5,0,0,0,1.241-.809Z" transform="translate(-90.673 -246.057)" stroke="#000" stroke-width="0.4"/>
      <path id="Path_147396" data-name="Path 147396" d="M93.511-.049H78.259a.547.547,0,0,0-.446.156L70.157,7.763a.607.607,0,0,0-.088.118l-.016.03a.521.521,0,0,0-.046.134A.412.412,0,0,0,70,8.154V34.4a.547.547,0,0,0,.547.547H93.511a.547.547,0,0,0,.547-.547V.5a.547.547,0,0,0-.547-.547ZM77.652,1.818V7.607H71.863ZM92.964,33.857H71.089V8.7H78.2a.547.547,0,0,0,.547-.547V1.045H92.964Z" transform="translate(0)" stroke="#000" stroke-width="0.4"/>
      <path id="Path_147397" data-name="Path 147397" d="M481.8,262.5h-8.75a.547.547,0,1,0,0,1.094h.273v13.4a4.1,4.1,0,1,0,8.2,0v-13.4h.274a.547.547,0,0,0,0-1.094Zm-1.367,14.492a3.008,3.008,0,1,1-6.015,0v-13.4h6.015Z" transform="translate(-377.348 -246.143)" stroke="#000" stroke-width="0.4"/>
    </g>
  </g>
</svg>
