<svg id="notifications_24px" xmlns="http://www.w3.org/2000/svg" width="35" height="35" viewBox="0 0 35 35">
  <rect id="Boundary" width="35" height="35" fill="none"/>
  <g id="noun-lab-196806" transform="translate(7.082 0.509)">
    <path id="Path_147398" data-name="Path 147398" d="M210.96,176.292l-6.442-11.164V154.2h1.112a1.1,1.1,0,0,0,0-2.2h-9.394a1.1,1.1,0,0,0,0,2.2h1.108l-.036,10.974-6.355,11.039a2.536,2.536,0,0,0-.21,2.471,2.123,2.123,0,0,0,1.921,1.307H209.2a2.125,2.125,0,0,0,1.921-1.307,2.491,2.491,0,0,0-.162-2.4Zm-1.632,1.415a.128.128,0,0,1-.127.087H192.665a.129.129,0,0,1-.127-.087c-.039-.087,0-.142.062-.239l6.356-11.04a2.315,2.315,0,0,0,.4-1.3V154.2h3.163v10.925a2.225,2.225,0,0,0,.35,1.226l6.451,11.189a.156.156,0,0,1,.013.163Z" transform="translate(-190.517 -146.011)"/>
    <path id="Path_147399" data-name="Path 147399" d="M315.237,102.55a.957.957,0,1,1-.957-.957.957.957,0,0,1,.957.957" transform="translate(-304.722 -96.348)"/>
    <path id="Path_147400" data-name="Path 147400" d="M337.713,26.742a1.4,1.4,0,1,1-1.4-1.4,1.4,1.4,0,0,1,1.4,1.4" transform="translate(-324.559 -25.344)"/>
    <path id="Path_147401" data-name="Path 147401" d="M255.985,407.813c-2.554.1-5.594-2.019-6.458-1.36-.24.183-3.3,3.157-3.3,3.157-.567.518-.325.673.611.673h14.312c.323,0,.519-.216.346-.382l-2.453-2.352a.563.563,0,0,0-.483-.1,14.644,14.644,0,0,1-2.579.363Z" transform="translate(-243.307 -378.287)"/>
  </g>
</svg>
