<svg xmlns="http://www.w3.org/2000/svg" width="295.389" height="80.313" viewBox="0 0 295.389 80.313">
  <g id="Group_851" data-name="Group 851" transform="translate(-34 -389.17)">
    <path id="Path_947" data-name="Path 947" d="M518.742,254.318a7.46,7.46,0,0,0-2.954.591,7.648,7.648,0,0,0-2.414,1.624,7.525,7.525,0,0,0-1.618,2.412,6.4,6.4,0,0,0-.277.758c-.041-.094-.074-.187-.118-.279a8.554,8.554,0,0,0-1.768-2.594,8.645,8.645,0,0,0-2.6-1.771,7.5,7.5,0,0,0-3.1-.659,8.13,8.13,0,0,0-3.326.659A8,8,0,0,0,498,256.829a7.887,7.887,0,0,0-1.125,1.509,8.28,8.28,0,0,0-1.192-1.509,8.58,8.58,0,0,0-2.594-1.771,7.551,7.551,0,0,0-3.107-.659,8.111,8.111,0,0,0-3.323.659,7.994,7.994,0,0,0-2.559,1.771c-.126.13-.241.266-.357.4v-7.457h-3.779v5.947a8.205,8.205,0,0,0-2.027-.93,7.9,7.9,0,0,0-2.279-.323,7.766,7.766,0,0,0-3.14.638,7.914,7.914,0,0,0-3.8,3.344,7.882,7.882,0,0,0-1.239-1.63,8.169,8.169,0,0,0-8.01-2.029,7.864,7.864,0,0,0-2.015.93v-5.947h-3.773v8.8a8.231,8.231,0,0,0-1.332-1.781,8.1,8.1,0,0,0-2.572-1.738,8.088,8.088,0,0,0-6.3,0,8.088,8.088,0,0,0-4.327,4.321,8.182,8.182,0,0,0,0,6.3,8.728,8.728,0,0,0,.657,1.224h-.637a3.523,3.523,0,0,1-1.471-.3,3.98,3.98,0,0,1-2.031-2.03,3.716,3.716,0,0,1-.295-1.471V249.773h-3.78V263.11a7.483,7.483,0,0,0,.589,2.953,7.566,7.566,0,0,0,1.627,2.412,7.645,7.645,0,0,0,2.406,1.622,7.4,7.4,0,0,0,2.954.59h2.152v-2.034a8.5,8.5,0,0,0,2.154,1.327,7.884,7.884,0,0,0,3.154.636,8.009,8.009,0,0,0,2.271-.32,8.25,8.25,0,0,0,2.034-.929v1.25h3.779v-4.148a8.257,8.257,0,0,0,1.332,1.773,8.028,8.028,0,0,0,5.722,2.375,7.863,7.863,0,0,0,3.14-.636,8.149,8.149,0,0,0,2.572-1.739,7.874,7.874,0,0,0,1.23-1.611,8.007,8.007,0,0,0,3.815,3.35,7.8,7.8,0,0,0,3.14.636,7.938,7.938,0,0,0,3.151-.636,8.2,8.2,0,0,0,2.571-1.727,8,8,0,0,0,1.4-1.9,7.871,7.871,0,0,0,1.318,1.854,8,8,0,0,0,2.559,1.768,8.137,8.137,0,0,0,3.323.662,7.579,7.579,0,0,0,3.107-.662,8.586,8.586,0,0,0,2.594-1.768,8.47,8.47,0,0,0,1.192-1.5,7.739,7.739,0,0,0,3.687,3.271,8.156,8.156,0,0,0,3.326.662,7.525,7.525,0,0,0,3.1-.662,8.651,8.651,0,0,0,2.6-1.768,8.863,8.863,0,0,0,1.574-2.174v4.65h3.773V261.9a3.565,3.565,0,0,1,.3-1.469,3.9,3.9,0,0,1,2.029-2.03,3.628,3.628,0,0,1,1.472-.3H520.9v-3.778Zm-72.117,12.508a4.318,4.318,0,1,1,4.315-4.318A4.316,4.316,0,0,1,446.625,266.825Zm15.147,0a4.318,4.318,0,1,1,4.313-4.318A4.314,4.314,0,0,1,461.772,266.825Zm13.895,0a4.318,4.318,0,1,1,4.314-4.318A4.317,4.317,0,0,1,475.667,266.825Zm14.277,0a4.318,4.318,0,1,1,4.314-4.318A4.317,4.317,0,0,1,489.944,266.825Zm13.943,0a4.318,4.318,0,1,1,4.318-4.318A4.312,4.312,0,0,1,503.887,266.825Z" transform="translate(-397.591 169.228)" fill="#fff"/>
    <g id="Group_843" data-name="Group 843" transform="translate(-239.152 -68.965)">
      <path id="Path_948" data-name="Path 948" d="M474.027,982.377V983.5h-1.72v4.987h-1.418V983.5H469.17v-1.124Z" transform="translate(-58.363 -471)" fill="#fff"/>
      <path id="Path_949" data-name="Path 949" d="M535.765,982.377v1.091h-2.508v1.426h1.921v1.049h-1.921V987.4h2.508v1.09h-3.934v-6.111Z" transform="translate(-114.691 -471)" fill="#fff"/>
      <path id="Path_950" data-name="Path 950" d="M586.969,983.024a.54.54,0,0,1-.132.151.3.3,0,0,1-.178.05.437.437,0,0,1-.208-.061l-.251-.136a2.09,2.09,0,0,0-.321-.137,1.281,1.281,0,0,0-.411-.061.884.884,0,0,0-.593.17.578.578,0,0,0-.2.46.423.423,0,0,0,.118.306,1,1,0,0,0,.308.209,3.324,3.324,0,0,0,.436.162q.246.073.5.163a4.529,4.529,0,0,1,.5.212,1.665,1.665,0,0,1,.436.31,1.453,1.453,0,0,1,.308.459,1.632,1.632,0,0,1,.117.652,2.128,2.128,0,0,1-.147.793,1.862,1.862,0,0,1-.426.644,1.975,1.975,0,0,1-.688.432,2.573,2.573,0,0,1-.929.157,2.974,2.974,0,0,1-.581-.059,3.4,3.4,0,0,1-.573-.166,3.3,3.3,0,0,1-.52-.254,2.212,2.212,0,0,1-.424-.327l.419-.663a.34.34,0,0,1,.13-.122.364.364,0,0,1,.18-.046.475.475,0,0,1,.254.08q.127.079.289.176a2.325,2.325,0,0,0,.371.176,1.393,1.393,0,0,0,.495.08.944.944,0,0,0,.6-.17.647.647,0,0,0,.214-.539.511.511,0,0,0-.117-.348.91.91,0,0,0-.308-.222,2.777,2.777,0,0,0-.434-.155q-.243-.067-.5-.149a3.622,3.622,0,0,1-.5-.2,1.58,1.58,0,0,1-.434-.314,1.462,1.462,0,0,1-.308-.487,1.926,1.926,0,0,1-.118-.719,1.707,1.707,0,0,1,.138-.671,1.739,1.739,0,0,1,.407-.583,2.008,2.008,0,0,1,.658-.409,2.428,2.428,0,0,1,.893-.153,3.359,3.359,0,0,1,.548.044,2.917,2.917,0,0,1,.505.13,2.75,2.75,0,0,1,.447.206,2.073,2.073,0,0,1,.371.27Z" transform="translate(-160.796 -470.406)" fill="#fff"/>
      <path id="Path_951" data-name="Path 951" d="M642.007,982.377V983.5h-1.719v4.987H638.87V983.5h-1.72v-1.124Z" transform="translate(-209.366 -471)" fill="#fff"/>
      <path id="Path_952" data-name="Path 952" d="M703.749,982.377v1.091h-2.508v1.426h1.921v1.049h-1.921V987.4h2.508v1.09h-3.934v-6.111Z" transform="translate(-265.698 -471)" fill="#fff"/>
      <path id="Path_953" data-name="Path 953" d="M761.046,985.43a3.2,3.2,0,0,1-.229,1.223,2.854,2.854,0,0,1-.644.969,2.923,2.923,0,0,1-1,.638,3.541,3.541,0,0,1-1.3.229H755.5v-6.111h2.374a3.516,3.516,0,0,1,1.3.231,2.963,2.963,0,0,1,1,.638,2.837,2.837,0,0,1,.644.967A3.189,3.189,0,0,1,761.046,985.43Zm-1.451,0a2.661,2.661,0,0,0-.118-.818,1.744,1.744,0,0,0-.338-.619,1.465,1.465,0,0,0-.539-.39,1.829,1.829,0,0,0-.726-.136h-.948v3.93h.948a1.835,1.835,0,0,0,.726-.136,1.467,1.467,0,0,0,.539-.39,1.74,1.74,0,0,0,.338-.619A2.672,2.672,0,0,0,759.595,985.43Z" transform="translate(-315.756 -471)" fill="#fff"/>
      <path id="Path_954" data-name="Path 954" d="M854.632,982.377v1.091h-2.508v1.547h2.089v1.095h-2.089v2.378H850.7v-6.111Z" transform="translate(-401.332 -471)" fill="#fff"/>
      <path id="Path_955" data-name="Path 955" d="M908.92,984.836a3.287,3.287,0,0,1-.229,1.233,2.911,2.911,0,0,1-1.644,1.653,3.646,3.646,0,0,1-2.6,0,2.916,2.916,0,0,1-1.65-1.653,3.441,3.441,0,0,1,0-2.466,2.935,2.935,0,0,1,.646-.99,2.99,2.99,0,0,1,1-.658,3.415,3.415,0,0,1,1.3-.239,3.374,3.374,0,0,1,1.3.241,3,3,0,0,1,1,.66,2.958,2.958,0,0,1,.644.99A3.275,3.275,0,0,1,908.92,984.836Zm-1.451,0a2.652,2.652,0,0,0-.117-.816,1.733,1.733,0,0,0-.338-.614,1.463,1.463,0,0,0-.539-.386,1.859,1.859,0,0,0-.726-.134,1.886,1.886,0,0,0-.732.134,1.458,1.458,0,0,0-.541.386,1.734,1.734,0,0,0-.338.614,2.911,2.911,0,0,0,0,1.636,1.735,1.735,0,0,0,.338.614,1.434,1.434,0,0,0,.541.384,1.9,1.9,0,0,0,.732.132,1.874,1.874,0,0,0,.726-.132,1.44,1.44,0,0,0,.539-.384,1.734,1.734,0,0,0,.338-.614A2.666,2.666,0,0,0,907.469,984.836Z" transform="translate(-447.961 -470.406)" fill="#fff"/>
      <path id="Path_956" data-name="Path 956" d="M982.334,986.227v2.26h-1.418v-6.111H982.9a4.091,4.091,0,0,1,1.13.136,2.126,2.126,0,0,1,.763.38,1.432,1.432,0,0,1,.43.575,1.9,1.9,0,0,1,.135.721,1.939,1.939,0,0,1-.08.562,1.688,1.688,0,0,1-.237.489,1.828,1.828,0,0,1-.386.4,2.048,2.048,0,0,1-.526.289,1.329,1.329,0,0,1,.266.176,1.056,1.056,0,0,1,.216.256l1.3,2.126h-1.283a.544.544,0,0,1-.512-.269l-1.015-1.774a.427.427,0,0,0-.157-.168.529.529,0,0,0-.254-.05Zm0-.977h.57a1.46,1.46,0,0,0,.493-.073.892.892,0,0,0,.334-.2.774.774,0,0,0,.188-.3,1.163,1.163,0,0,0,.059-.375.787.787,0,0,0-.262-.629,1.222,1.222,0,0,0-.812-.227h-.57Z" transform="translate(-518.389 -471)" fill="#fff"/>
      <g id="Group_841" data-name="Group 841" transform="translate(414.815 458.423)">
        <path id="Path_957" data-name="Path 957" d="M530.485,502.487a21.332,21.332,0,0,1-15.317-6.456,22.3,22.3,0,0,1,0-31.152,21.4,21.4,0,0,1,30.634,0,22.081,22.081,0,0,1,6.341,15.576,22.368,22.368,0,0,1-2.593,10.462q-.125.236-.256.469l-.793-.446q.125-.223.246-.449a21.456,21.456,0,0,0,2.486-10.035,20.751,20.751,0,1,0-20.748,21.122,20.5,20.5,0,0,0,9.678-2.434c.347-.187.695-.387,1.033-.594l.477.775c-.353.217-.715.426-1.078.621A21.41,21.41,0,0,1,530.485,502.487Z" transform="translate(-508.828 -458.423)" fill="#fff"/>
      </g>
      <path id="Path_958" data-name="Path 958" d="M684.143,638.176a1.041,1.041,0,0,0-.8.387l-4.116,5.091-1.8-1.467a1.042,1.042,0,1,0-1.316,1.616l2.613,2.127a1.042,1.042,0,0,0,.657.234v0a.358.358,0,0,0,.106-.01,1.035,1.035,0,0,0,.7-.38l4.773-5.9a1.043,1.043,0,0,0-.819-1.7Z" transform="translate(-244.044 -161.586)" fill="#fff"/>
      <path id="Path_959" data-name="Path 959" d="M639.167,580.377a10.544,10.544,0,1,0-10.544,10.544A10.556,10.556,0,0,0,639.167,580.377Zm-10.544,9.7a9.7,9.7,0,1,1,9.7-9.7A9.711,9.711,0,0,1,628.623,590.077Z" transform="translate(-192.223 -100.15)" fill="#fff"/>
      <path id="Path_960" data-name="Path 960" d="M620.842,568.421l-10.53-10.53a13.938,13.938,0,1,0-4.175,4.175l10.53,10.53a2.952,2.952,0,0,0,4.175-4.175Zm-35.3-18.054a13.074,13.074,0,1,1,13.074,13.074A13.089,13.089,0,0,1,585.538,550.367Z" transform="translate(-162.213 -70.14)" fill="#fff"/>
      <g id="Group_842" data-name="Group 842" transform="translate(404.245 520.789)">
        <path id="Path_961" data-name="Path 961" d="M779.572,1142.387a1.235,1.235,0,0,0-.821-.229h-.577v1.834h.577a1.478,1.478,0,0,0,.5-.074.9.9,0,0,0,.337-.206.784.784,0,0,0,.191-.308,1.182,1.182,0,0,0,.059-.38A.8.8,0,0,0,779.572,1142.387Z" transform="translate(-740.381 -1135.421)" fill="#fff"/>
        <path id="Path_962" data-name="Path 962" d="M844.934,1144.606q-.074-.218-.146-.473-.068.259-.14.48t-.136.382l-.569,1.685h1.69l-.569-1.694Z" transform="translate(-799.504 -1137.197)" fill="#fff"/>
        <path id="Path_963" data-name="Path 963" d="M525.988,1144.606q-.074-.218-.146-.473-.068.259-.14.48t-.136.382L525,1146.68h1.69l-.569-1.694Z" transform="translate(-512.793 -1137.197)" fill="#fff"/>
        <path id="Path_964" data-name="Path 964" d="M465.3,1075.5H413.075a8.856,8.856,0,0,0-8.83,8.83h0a8.856,8.856,0,0,0,8.83,8.83H465.3a8.856,8.856,0,0,0,8.83-8.83h0A8.856,8.856,0,0,0,465.3,1075.5Zm-45.994,11.848a.513.513,0,0,1-.308-.087.447.447,0,0,1-.168-.223l-.365-1.078h-2.352l-.365,1.078a.491.491,0,0,1-.467.31h-1.121l2.394-6.185h1.469l2.394,6.185Zm3.254-2.25a1.855,1.855,0,0,0,.352.622,1.5,1.5,0,0,0,.52.384,1.554,1.554,0,0,0,.637.132,3.054,3.054,0,0,0,.357-.019,1.477,1.477,0,0,0,.3-.066,1.39,1.39,0,0,0,.263-.121,1.738,1.738,0,0,0,.253-.185.506.506,0,0,1,.11-.07.285.285,0,0,1,.225-.008.275.275,0,0,1,.1.066l.569.6a2.36,2.36,0,0,1-.936.737,3.278,3.278,0,0,1-1.331.248,3.169,3.169,0,0,1-1.263-.24,2.728,2.728,0,0,1-.947-.662,2.912,2.912,0,0,1-.6-1,3.7,3.7,0,0,1-.208-1.259,3.318,3.318,0,0,1,.238-1.271,2.964,2.964,0,0,1,.664-1,2.994,2.994,0,0,1,1.021-.654,3.558,3.558,0,0,1,1.312-.234,3.353,3.353,0,0,1,.656.062,3.206,3.206,0,0,1,.575.17,2.7,2.7,0,0,1,.492.259,2.381,2.381,0,0,1,.4.333l-.484.649a.615.615,0,0,1-.11.108.288.288,0,0,1-.178.049.319.319,0,0,1-.144-.034,1.623,1.623,0,0,1-.144-.083l-.168-.106a1.285,1.285,0,0,0-.216-.106,1.8,1.8,0,0,0-.293-.083,1.984,1.984,0,0,0-.393-.034,1.8,1.8,0,0,0-.713.138,1.565,1.565,0,0,0-.554.395,1.833,1.833,0,0,0-.361.622,2.438,2.438,0,0,0-.13.819A2.546,2.546,0,0,0,422.564,1085.1Zm6.231,0a1.854,1.854,0,0,0,.352.622,1.5,1.5,0,0,0,.52.384,1.554,1.554,0,0,0,.637.132,3.055,3.055,0,0,0,.357-.019,1.477,1.477,0,0,0,.3-.066,1.386,1.386,0,0,0,.263-.121,1.739,1.739,0,0,0,.253-.185.506.506,0,0,1,.11-.07.285.285,0,0,1,.225-.008.276.276,0,0,1,.1.066l.569.6a2.36,2.36,0,0,1-.936.737,3.278,3.278,0,0,1-1.331.248,3.17,3.17,0,0,1-1.263-.24,2.729,2.729,0,0,1-.947-.662,2.915,2.915,0,0,1-.6-1,3.7,3.7,0,0,1-.208-1.259,3.318,3.318,0,0,1,.238-1.271,2.962,2.962,0,0,1,.664-1,2.992,2.992,0,0,1,1.021-.654,3.558,3.558,0,0,1,1.312-.234,3.352,3.352,0,0,1,.656.062,3.208,3.208,0,0,1,.575.17,2.707,2.707,0,0,1,.492.259,2.383,2.383,0,0,1,.4.333l-.484.649a.62.62,0,0,1-.11.108.288.288,0,0,1-.178.049.319.319,0,0,1-.144-.034,1.632,1.632,0,0,1-.144-.083l-.168-.106a1.288,1.288,0,0,0-.217-.106,1.807,1.807,0,0,0-.293-.083,1.985,1.985,0,0,0-.393-.034,1.8,1.8,0,0,0-.713.138,1.563,1.563,0,0,0-.554.395,1.831,1.831,0,0,0-.361.622,2.44,2.44,0,0,0-.129.819A2.548,2.548,0,0,0,428.795,1085.1Zm10.219-.272a2.86,2.86,0,0,1-.185,1.044,2.341,2.341,0,0,1-.529.819,2.385,2.385,0,0,1-.836.535,3.324,3.324,0,0,1-2.22,0,2.385,2.385,0,0,1-.836-.535,2.32,2.32,0,0,1-.526-.819,2.889,2.889,0,0,1-.182-1.044v-3.663h1.435v3.659a1.9,1.9,0,0,0,.083.584,1.231,1.231,0,0,0,.24.437,1.033,1.033,0,0,0,.384.276,1.439,1.439,0,0,0,1.031,0,1.044,1.044,0,0,0,.384-.274,1.211,1.211,0,0,0,.24-.435,1.9,1.9,0,0,0,.083-.584v-3.663h1.435Zm5.348,2.521a.551.551,0,0,1-.518-.272l-1.027-1.8a.432.432,0,0,0-.159-.17.532.532,0,0,0-.257-.051h-.365v2.288H440.6v-6.185h2.012a4.131,4.131,0,0,1,1.144.138,2.15,2.15,0,0,1,.773.384,1.456,1.456,0,0,1,.435.582,1.928,1.928,0,0,1,.136.73,1.958,1.958,0,0,1-.081.569,1.718,1.718,0,0,1-.24.494,1.858,1.858,0,0,1-.39.406,2.071,2.071,0,0,1-.533.293,1.361,1.361,0,0,1,.27.178,1.063,1.063,0,0,1,.219.259l1.316,2.152Zm7.182,0a.513.513,0,0,1-.308-.087.448.448,0,0,1-.168-.223l-.365-1.078h-2.352l-.365,1.078a.491.491,0,0,1-.467.31H446.4l2.394-6.185h1.469l2.394,6.185Zm3.254-2.25a1.855,1.855,0,0,0,.352.622,1.5,1.5,0,0,0,.52.384,1.554,1.554,0,0,0,.637.132,3.056,3.056,0,0,0,.357-.019,1.477,1.477,0,0,0,.3-.066,1.386,1.386,0,0,0,.263-.121,1.739,1.739,0,0,0,.253-.185.505.505,0,0,1,.11-.07.285.285,0,0,1,.225-.008.276.276,0,0,1,.1.066l.569.6a2.36,2.36,0,0,1-.936.737,3.278,3.278,0,0,1-1.331.248,3.17,3.17,0,0,1-1.263-.24,2.728,2.728,0,0,1-.947-.662,2.912,2.912,0,0,1-.6-1,3.7,3.7,0,0,1-.208-1.259,3.318,3.318,0,0,1,.238-1.271,2.931,2.931,0,0,1,1.685-1.653,3.558,3.558,0,0,1,1.312-.234,3.351,3.351,0,0,1,.656.062,3.2,3.2,0,0,1,.575.17,2.707,2.707,0,0,1,.492.259,2.384,2.384,0,0,1,.4.333l-.484.649a.622.622,0,0,1-.11.108.288.288,0,0,1-.178.049.318.318,0,0,1-.144-.034,1.615,1.615,0,0,1-.144-.083l-.168-.106a1.284,1.284,0,0,0-.217-.106,1.8,1.8,0,0,0-.293-.083,1.986,1.986,0,0,0-.393-.034,1.8,1.8,0,0,0-.713.138,1.564,1.564,0,0,0-.554.395,1.832,1.832,0,0,0-.361.622,2.44,2.44,0,0,0-.129.819A2.548,2.548,0,0,0,454.8,1085.1Zm8.072-.1v2.351h-1.435V1085l-2.241-3.833h1.265a.467.467,0,0,1,.3.087.65.65,0,0,1,.178.223l.875,1.8.2.4q.089.183.157.361a3.34,3.34,0,0,1,.153-.365q.089-.183.191-.395l.866-1.8a.538.538,0,0,1,.07-.11.615.615,0,0,1,.1-.1.489.489,0,0,1,.132-.072.47.47,0,0,1,.163-.028h1.273Z" transform="translate(-404.245 -1075.5)" fill="#fff"/>
      </g>
    </g>
    <g id="Group_850" data-name="Group 850" transform="translate(-145.029 -69.409)">
      <g id="Group_846" data-name="Group 846" transform="translate(404.245 511.69)">
        <g id="Group_844" data-name="Group 844" transform="translate(6.605 0)">
          <path id="Path_965" data-name="Path 965" d="M474.208,982.6v1.129h-1.727v5.007h-1.423v-5.007h-1.726V982.6Z" transform="translate(-469.331 -982.538)" fill="#fff"/>
          <path id="Path_966" data-name="Path 966" d="M535.942,982.6v1.1h-2.518v1.432h1.929v1.053h-1.929v1.462h2.518v1.095h-3.95V982.6Z" transform="translate(-525.633 -982.538)" fill="#fff"/>
          <path id="Path_967" data-name="Path 967" d="M587.146,983.258a.546.546,0,0,1-.133.151.3.3,0,0,1-.179.051.439.439,0,0,1-.209-.061l-.252-.137a2.111,2.111,0,0,0-.323-.137,1.288,1.288,0,0,0-.413-.061.889.889,0,0,0-.6.17.58.58,0,0,0-.2.462.424.424,0,0,0,.118.307,1.006,1.006,0,0,0,.31.21,3.354,3.354,0,0,0,.438.162q.247.073.5.164a4.547,4.547,0,0,1,.5.213,1.672,1.672,0,0,1,.438.312,1.463,1.463,0,0,1,.31.461,1.64,1.64,0,0,1,.118.655,2.136,2.136,0,0,1-.147.8,1.867,1.867,0,0,1-.427.646,1.983,1.983,0,0,1-.691.434,2.586,2.586,0,0,1-.933.158,2.989,2.989,0,0,1-.583-.059,3.415,3.415,0,0,1-.575-.166,3.315,3.315,0,0,1-.522-.255,2.225,2.225,0,0,1-.426-.329l.421-.665a.343.343,0,0,1,.131-.122.366.366,0,0,1,.181-.046.477.477,0,0,1,.255.08q.128.08.29.177a2.342,2.342,0,0,0,.373.177,1.4,1.4,0,0,0,.5.08.949.949,0,0,0,.6-.171.65.65,0,0,0,.215-.541.513.513,0,0,0-.118-.35.914.914,0,0,0-.31-.223,2.776,2.776,0,0,0-.436-.156q-.244-.068-.5-.15a3.62,3.62,0,0,1-.5-.2,1.584,1.584,0,0,1-.435-.316,1.467,1.467,0,0,1-.31-.489,1.933,1.933,0,0,1-.118-.722,1.714,1.714,0,0,1,.139-.674,1.747,1.747,0,0,1,.409-.585,2.015,2.015,0,0,1,.661-.41,2.439,2.439,0,0,1,.9-.154,3.372,3.372,0,0,1,.55.044,2.934,2.934,0,0,1,.507.13,2.768,2.768,0,0,1,.449.207,2.078,2.078,0,0,1,.373.271Z" transform="translate(-571.717 -981.944)" fill="#fff"/>
          <path id="Path_968" data-name="Path 968" d="M642.188,982.6v1.129h-1.726v5.007h-1.423v-5.007h-1.727V982.6Z" transform="translate(-620.264 -982.538)" fill="#fff"/>
          <path id="Path_969" data-name="Path 969" d="M703.926,982.6v1.1h-2.518v1.432h1.929v1.053h-1.929v1.462h2.518v1.095h-3.95V982.6Z" transform="translate(-676.57 -982.538)" fill="#fff"/>
          <path id="Path_970" data-name="Path 970" d="M761.229,985.671A3.213,3.213,0,0,1,761,986.9a2.867,2.867,0,0,1-.646.973,2.935,2.935,0,0,1-1,.64,3.559,3.559,0,0,1-1.3.229h-2.384V982.6h2.384a3.532,3.532,0,0,1,1.3.232,2.974,2.974,0,0,1,1,.64,2.848,2.848,0,0,1,.646.971A3.2,3.2,0,0,1,761.229,985.671Zm-1.457,0a2.671,2.671,0,0,0-.118-.821,1.752,1.752,0,0,0-.339-.621,1.472,1.472,0,0,0-.541-.391,1.835,1.835,0,0,0-.729-.137h-.951v3.946h.951a1.844,1.844,0,0,0,.729-.137,1.475,1.475,0,0,0,.541-.392,1.748,1.748,0,0,0,.339-.621A2.684,2.684,0,0,0,759.772,985.671Z" transform="translate(-726.605 -982.538)" fill="#fff"/>
          <path id="Path_971" data-name="Path 971" d="M854.809,982.6v1.1h-2.518v1.554h2.1v1.1h-2.1v2.388h-1.432V982.6Z" transform="translate(-812.142 -982.538)" fill="#fff"/>
          <path id="Path_972" data-name="Path 972" d="M909.107,985.077a3.3,3.3,0,0,1-.229,1.238,2.924,2.924,0,0,1-1.651,1.659,3.66,3.66,0,0,1-2.609,0,2.928,2.928,0,0,1-1.657-1.659,3.455,3.455,0,0,1,0-2.476,2.949,2.949,0,0,1,.648-.994,3,3,0,0,1,1.009-.661,3.429,3.429,0,0,1,1.306-.24,3.385,3.385,0,0,1,1.3.242,3.012,3.012,0,0,1,1,.663,2.968,2.968,0,0,1,.646.994A3.29,3.29,0,0,1,909.107,985.077Zm-1.457,0a2.66,2.66,0,0,0-.118-.819,1.738,1.738,0,0,0-.339-.617,1.47,1.47,0,0,0-.541-.388,1.867,1.867,0,0,0-.729-.135,1.894,1.894,0,0,0-.735.135,1.463,1.463,0,0,0-.543.388,1.74,1.74,0,0,0-.339.617,2.923,2.923,0,0,0,0,1.642,1.741,1.741,0,0,0,.339.617,1.439,1.439,0,0,0,.543.385,1.911,1.911,0,0,0,.735.133,1.884,1.884,0,0,0,.729-.133,1.444,1.444,0,0,0,.541-.385,1.739,1.739,0,0,0,.339-.617A2.675,2.675,0,0,0,907.65,985.077Z" transform="translate(-858.75 -981.944)" fill="#fff"/>
          <path id="Path_973" data-name="Path 973" d="M982.5,986.471v2.27h-1.423V982.6h2a4.106,4.106,0,0,1,1.135.137,2.134,2.134,0,0,1,.766.381,1.437,1.437,0,0,1,.432.577,1.906,1.906,0,0,1,.135.724,1.947,1.947,0,0,1-.08.564,1.7,1.7,0,0,1-.238.491,1.836,1.836,0,0,1-.387.4,2.056,2.056,0,0,1-.529.291,1.326,1.326,0,0,1,.268.177,1.064,1.064,0,0,1,.217.257l1.306,2.135h-1.289a.546.546,0,0,1-.514-.27l-1.019-1.781a.428.428,0,0,0-.158-.168.531.531,0,0,0-.255-.05Zm0-.981h.573a1.466,1.466,0,0,0,.495-.074.9.9,0,0,0,.335-.2.778.778,0,0,0,.189-.305,1.17,1.17,0,0,0,.059-.377.79.79,0,0,0-.263-.632,1.227,1.227,0,0,0-.815-.228H982.5Z" transform="translate(-929.145 -982.538)" fill="#fff"/>
        </g>
        <g id="Group_845" data-name="Group 845" transform="translate(0 9.471)">
          <path id="Path_974" data-name="Path 974" d="M723.652,1140.166a1.613,1.613,0,0,0-1.072-.3h-.753v2.394h.753a1.926,1.926,0,0,0,.651-.1,1.176,1.176,0,0,0,.44-.269,1.024,1.024,0,0,0,.249-.4,1.54,1.54,0,0,0,.078-.5A1.041,1.041,0,0,0,723.652,1140.166Z" transform="translate(-689.598 -1133.312)" fill="#fff"/>
          <path id="Path_975" data-name="Path 975" d="M558.068,1140.208a1.134,1.134,0,0,0-.427-.252,1.888,1.888,0,0,0-.612-.089h-.975v2.56h.975a1.188,1.188,0,0,0,1.374-1.324,1.458,1.458,0,0,0-.083-.5A1.027,1.027,0,0,0,558.068,1140.208Z" transform="translate(-540.648 -1133.312)" fill="#fff"/>
          <path id="Path_976" data-name="Path 976" d="M465.553,1075.271H413.111a8.892,8.892,0,0,0-8.866,8.866h0a8.892,8.892,0,0,0,8.866,8.866h52.443a8.892,8.892,0,0,0,8.866-8.866h0A8.892,8.892,0,0,0,465.553,1075.271Zm-41.875,8.9a2.223,2.223,0,0,1-.593.864,2.794,2.794,0,0,1-1.011.563,4.634,4.634,0,0,1-1.449.2h-.975v2.7h-1.873v-8.073h2.848a4.7,4.7,0,0,1,1.466.2,2.817,2.817,0,0,1,1.008.557,2.172,2.172,0,0,1,.585.837,2.836,2.836,0,0,1,.188,1.042A3.064,3.064,0,0,1,423.679,1084.17Zm8.849,1.036a3.732,3.732,0,0,1-.241,1.363,3.058,3.058,0,0,1-.69,1.07,3.113,3.113,0,0,1-1.092.7,4.336,4.336,0,0,1-2.9,0,3.112,3.112,0,0,1-1.092-.7,3.024,3.024,0,0,1-.687-1.07,3.771,3.771,0,0,1-.238-1.363v-4.782h1.873v4.776a2.48,2.48,0,0,0,.108.762,1.609,1.609,0,0,0,.313.571,1.349,1.349,0,0,0,.5.36,1.881,1.881,0,0,0,1.347,0,1.363,1.363,0,0,0,.5-.357,1.579,1.579,0,0,0,.313-.568,2.482,2.482,0,0,0,.108-.762v-4.782h1.873Zm6.982,3.291a.72.72,0,0,1-.676-.355l-1.341-2.344a.565.565,0,0,0-.208-.222.694.694,0,0,0-.335-.067h-.477v2.987H434.6v-8.073h2.626a5.393,5.393,0,0,1,1.493.18,2.8,2.8,0,0,1,1.008.5,1.9,1.9,0,0,1,.568.759,2.514,2.514,0,0,1,.177.953,2.56,2.56,0,0,1-.105.742,2.244,2.244,0,0,1-.313.646,2.426,2.426,0,0,1-.51.529,2.7,2.7,0,0,1-.7.382,1.767,1.767,0,0,1,.352.233,1.385,1.385,0,0,1,.285.338l1.718,2.809Zm5.364,0h-1.884v-8.073h1.884Zm8.212-6.588h-2.272v6.588H448.94v-6.588h-2.272v-1.485h6.417Zm5.652,3.518v3.07h-1.873v-3.07l-2.926-5h1.651a.609.609,0,0,1,.388.114.845.845,0,0,1,.233.291l1.141,2.349.255.521q.116.238.205.471a4.378,4.378,0,0,1,.2-.477q.116-.238.249-.516l1.13-2.349a.694.694,0,0,1,.092-.144.8.8,0,0,1,.133-.13.637.637,0,0,1,.172-.094.608.608,0,0,1,.213-.036h1.662Z" transform="translate(-404.245 -1075.271)" fill="#fff"/>
        </g>
      </g>
      <g id="Group_849" data-name="Group 849" transform="translate(417.389 458.579)">
        <path id="Path_977" data-name="Path 977" d="M544.028,666.587a5.151,5.151,0,1,1-10.259,0c0-3.1,5.248-10.795,5.248-10.795S544.028,663.486,544.028,666.587Z" transform="translate(-533.769 -635.779)" fill="#fff"/>
        <path id="Path_978" data-name="Path 978" d="M715.029,680.893a4.153,4.153,0,1,0,6.349-5.357l-11.685-13.847-10.844.03Z" transform="translate(-682.097 -641.077)" fill="#fff"/>
        <path id="Path_979" data-name="Path 979" d="M574.745,459.228l-12.7,10.715a2.769,2.769,0,0,0,3.572,4.233l.38-.321,22.626,26.813a7.615,7.615,0,1,0,11.639-9.822l-22.626-26.813.678-.572a2.769,2.769,0,1,0-3.571-4.232Zm2.679,3.174-1.736,1.465.3.36.589.7,22.626,26.813a6.23,6.23,0,1,1-9.523,8.036l-22.626-26.813-.589-.7-.3-.36-1.438,1.214A1.384,1.384,0,0,1,562.941,471l12.7-10.715a1.384,1.384,0,1,1,1.786,2.116Z" transform="translate(-558.298 -458.579)" fill="#fff"/>
        <g id="Group_847" data-name="Group 847" transform="translate(24.422 2.645)">
          <path id="Path_980" data-name="Path 980" d="M792.884,509.326l-.875-.147a20.638,20.638,0,0,0,.283-3.408,20.425,20.425,0,0,0-17.863-20.251l.11-.88a21.313,21.313,0,0,1,18.641,21.132A21.545,21.545,0,0,1,792.884,509.326Z" transform="translate(-774.429 -484.64)" fill="#fff"/>
        </g>
        <g id="Group_848" data-name="Group 848" transform="translate(7.985 39.246)">
          <path id="Path_981" data-name="Path 981" d="M626.35,851.139a21.292,21.292,0,0,1-13.891-5.154l.579-.672a20.451,20.451,0,0,0,18.025,4.392l.2.863A21.4,21.4,0,0,1,626.35,851.139Z" transform="translate(-612.459 -845.313)" fill="#fff"/>
        </g>
      </g>
    </g>
  </g>
</svg>
