<svg xmlns="http://www.w3.org/2000/svg" xmlns:xlink="http://www.w3.org/1999/xlink" width="47.533" height="25.973" viewBox="0 0 47.533 25.973">
  <defs>
    <clipPath id="clip-path">
      <path id="Path_8292" data-name="Path 8292" d="M391.613,243.164h1.97a2.84,2.84,0,0,1,2.006.765,2.449,2.449,0,0,1,0,3.664,2.84,2.84,0,0,1-2.006.764h-1.97Zm.215-9.635h1.54a2.593,2.593,0,0,1,1.791.675,2.12,2.12,0,0,1,.752,1.635,2.172,2.172,0,0,1-.752,1.653,2.552,2.552,0,0,1-1.791.694h-1.54Zm-7.737-5.552V253.91h12.357a7.635,7.635,0,0,0,3.009-.591,8.3,8.3,0,0,0,2.454-1.576,7.055,7.055,0,0,0,1.648-2.31,6.864,6.864,0,0,0,.591-2.83,6.213,6.213,0,0,0-.25-1.7,6.7,6.7,0,0,0-.735-1.665,8.417,8.417,0,0,0-1.146-1.469,6.137,6.137,0,0,0-1.451-1.11,7.067,7.067,0,0,0,1.863-2.435,6.844,6.844,0,0,0,.645-2.9,7.119,7.119,0,0,0-.466-2.525,6.792,6.792,0,0,0-1.4-2.239,6.08,6.08,0,0,0-1.2-1.039,9.106,9.106,0,0,0-1.5-.806,10.273,10.273,0,0,0-1.648-.537,7.172,7.172,0,0,0-1.63-.2Z" transform="translate(-384.091 -227.977)" fill="none"/>
    </clipPath>
  </defs>
  <g id="Group_78646" data-name="Group 78646" transform="translate(-20 -25.224)">
    <g id="Group_78611" data-name="Group 78611" transform="translate(2059.397 -5761.493)">
      <path id="Path_8289" data-name="Path 8289" d="M403.9,244.9a6.7,6.7,0,0,0-.735-1.665,8.416,8.416,0,0,0-1.146-1.469,6.133,6.133,0,0,0-1.451-1.11,7.069,7.069,0,0,0,1.863-2.436,6.842,6.842,0,0,0,.645-2.9,7.12,7.12,0,0,0-.466-2.525,6.792,6.792,0,0,0-1.4-2.239,6.075,6.075,0,0,0-1.2-1.039,9.109,9.109,0,0,0-1.5-.806,10.277,10.277,0,0,0-1.648-.538,7.174,7.174,0,0,0-1.63-.2H384.092V253.91h12.357a7.637,7.637,0,0,0,3.009-.591,8.3,8.3,0,0,0,2.454-1.576,7.057,7.057,0,0,0,1.648-2.31,6.864,6.864,0,0,0,.591-2.83,6.2,6.2,0,0,0-.251-1.7m-12.071-11.372h1.54a2.593,2.593,0,0,1,1.791.675,2.119,2.119,0,0,1,.752,1.635,2.172,2.172,0,0,1-.752,1.653,2.551,2.551,0,0,1-1.791.694h-1.54Zm3.761,14.064a2.839,2.839,0,0,1-2.006.765h-1.97v-5.193h1.97a2.84,2.84,0,0,1,2.006.765,2.449,2.449,0,0,1,0,3.664" transform="translate(-2396.014 5558.78)" fill="#fff"/>
      <path id="Path_8290" data-name="Path 8290" d="M230.1,227.717v25.968h-7.522V240.253l-4.764,6.34-4.692-6.34v13.432H205.6V227.717h7.522l4.692,6.3,4.764-6.3Z" transform="translate(-2245 5559)" fill="#fff"/>
      <g id="Group_74816" data-name="Group 74816" transform="translate(-2011.922 5786.757)" clip-path="url(#clip-path)">
        <path id="Path_8291" data-name="Path 8291" d="M384.091,219.192l18.661-15.986,10.939-.007V232.86H397.64l-13.549-12.289Z" transform="translate(-384.091 -207.013)" fill="#ffd800"/>
      </g>
    </g>
  </g>
</svg>
