<svg xmlns="http://www.w3.org/2000/svg" xmlns:xlink="http://www.w3.org/1999/xlink" width="177.324" height="24.896" viewBox="0 0 177.324 24.896">
  <defs>
    <clipPath id="clip-path">
      <path id="Path_55" data-name="Path 55" d="M100.981,38.434a6.3,6.3,0,0,0-.707-1.606,8.031,8.031,0,0,0-1.1-1.41,5.975,5.975,0,0,0-1.391-1.063,6.747,6.747,0,0,0,1.783-2.336,6.515,6.515,0,0,0,.62-2.779,6.862,6.862,0,0,0-.447-2.422,6.58,6.58,0,0,0-1.34-2.146,5.927,5.927,0,0,0-1.15-1,8.818,8.818,0,0,0-1.443-.771,9.619,9.619,0,0,0-1.577-.514,6.911,6.911,0,0,0-1.565-.19H82V47.07H93.846a7.287,7.287,0,0,0,2.892-.565,8.032,8.032,0,0,0,2.355-1.51,6.782,6.782,0,0,0,1.577-2.217,6.551,6.551,0,0,0,.565-2.712A6.04,6.04,0,0,0,101,38.434m-11.566-10.9h1.478a2.493,2.493,0,0,1,1.716.643,2.024,2.024,0,0,1,.72,1.568,2.075,2.075,0,0,1-.742,1.59A2.448,2.448,0,0,1,90.887,32H89.409Zm3.6,13.494a2.721,2.721,0,0,1-1.928.733H89.219V36.77h1.889a2.712,2.712,0,0,1,1.928.736,2.345,2.345,0,0,1,0,3.512" transform="translate(-82 -22.2)" fill="none"/>
    </clipPath>
  </defs>
  <g id="header" transform="translate(-30.414 -28.258)">
    <g id="Layer_1" data-name="Layer 1" transform="translate(30.414 28.258)">
      <path id="Path_39" data-name="Path 39" d="M100.981,38.434a6.3,6.3,0,0,0-.707-1.606,8.031,8.031,0,0,0-1.1-1.41,5.975,5.975,0,0,0-1.391-1.063,6.747,6.747,0,0,0,1.783-2.336,6.515,6.515,0,0,0,.62-2.779,6.862,6.862,0,0,0-.447-2.422,6.58,6.58,0,0,0-1.34-2.146,5.927,5.927,0,0,0-1.15-1,8.818,8.818,0,0,0-1.443-.771,9.619,9.619,0,0,0-1.577-.514,6.911,6.911,0,0,0-1.565-.19H82V47.07H93.846a7.287,7.287,0,0,0,2.892-.565,8.032,8.032,0,0,0,2.355-1.51,6.782,6.782,0,0,0,1.577-2.217,6.551,6.551,0,0,0,.565-2.712A6.04,6.04,0,0,0,101,38.434m-11.566-10.9h1.478a2.493,2.493,0,0,1,1.716.643,2.024,2.024,0,0,1,.72,1.568,2.075,2.075,0,0,1-.742,1.59A2.448,2.448,0,0,1,90.887,32H89.409Zm3.6,13.494a2.721,2.721,0,0,1-1.928.733H89.219V36.77h1.889a2.712,2.712,0,0,1,1.928.736,2.345,2.345,0,0,1,0,3.512" transform="translate(-55.655 -22.174)" fill="#fff"/>
      <path id="Path_40" data-name="Path 40" d="M23.485,22.12V47.013H16.276V34.136l-4.569,6.079-4.5-6.079V47.013H0V22.12H7.209l4.5,6.043,4.569-6.043Z" transform="translate(0 -22.12)" fill="#fff"/>
      <g id="Group_136" data-name="Group 136" transform="translate(55.499 6.548)">
        <path id="Path_41" data-name="Path 41" d="M5.921,4.013,3.033,0H0V11.18H3.42V5.457L5.654,8.679H6.2L8.421,5.457V11.18H11.85V0H8.817Z" transform="translate(0 0.001)" fill="#fff"/>
        <path id="Path_42" data-name="Path 42" d="M22.493,6.29c0,1.375-.4,1.942-1.435,1.942s-1.4-.55-1.4-1.942V0H16.22V6.5c.009,2.9,1.53,4.675,4.838,4.675s4.864-1.994,4.864-4.683V0H22.484Z" transform="translate(-2.282 0.001)" fill="#fff"/>
        <path id="Path_43" data-name="Path 43" d="M34.745,4.546l-1.4-.533a.7.7,0,0,1-.584-.7c0-.43.344-.7,1-.7a5.62,5.62,0,0,1,2.578.773L37.211.722A8.877,8.877,0,0,0,33.585,0C30.913,0,29.34,1.521,29.34,3.523c0,1.53.73,2.4,2.346,2.956l1.4.481c.567.189.756.43.756.748,0,.533-.43.8-1.083.8a4.941,4.941,0,0,1-2.5-.859l-.765,2.75a9.238,9.238,0,0,0,3.7.8c2.638,0,4.176-1.538,4.176-3.626C37.366,6.127,36.618,5.216,34.745,4.546Z" transform="translate(-4.128 0.001)" fill="#fff"/>
        <path id="Path_44" data-name="Path 44" d="M55.849,0H52.42V11.18h7.9V8.335H55.849Z" transform="translate(-7.375 0.001)" fill="#fff"/>
        <path id="Path_45" data-name="Path 45" d="M63.37,11.18h8.284V8.335H66.635V6.857h3.953V4.193H66.635V2.844h5.018V0H63.37Z" transform="translate(-8.915 0.001)" fill="#fff"/>
        <path id="Path_46" data-name="Path 46" d="M82.553,5.345a2.483,2.483,0,0,0,1.186-2.286C83.739.971,82.45,0,80.1,0H75.12V11.171h5.654c2.4,0,3.747-1.169,3.747-3.094a2.578,2.578,0,0,0-1.968-2.733Zm-4-2.879h.911a.782.782,0,0,1,.859.859.763.763,0,0,1-.859.859H78.6Zm1.538,6.247H78.549V6.771h1.487c.67,0,.928.412.928.988a.859.859,0,0,1-.877.954Z" transform="translate(-10.569 0.001)" fill="#fff"/>
        <path id="Path_47" data-name="Path 47" d="M90.78,0H87.36V11.18h7.888V8.335H90.78Z" transform="translate(-12.291 0.001)" fill="#fff"/>
        <path id="Path_48" data-name="Path 48" d="M101.418,0,97.86,11.171h3.386l.464-1.839h3.351l.481,1.839h3.437L105.388,0Zm1.134,6.935.859-3.7.859,3.7Z" transform="translate(-13.768 0.001)" fill="#fff"/>
        <path id="Path_49" data-name="Path 49" d="M111.88,2.844h3.9l-3.9,6.084V11.18h8.249V8.335h-3.85l3.85-6.084V0H111.88Z" transform="translate(-15.74 0.001)" fill="#fff"/>
        <path id="Path_50" data-name="Path 50" d="M131.354,2.844V0H123.07V11.18h8.284V8.335h-5.01V6.857H130.3V4.193h-3.953V2.844Z" transform="translate(-17.315 0.001)" fill="#fff"/>
        <path id="Path_51" data-name="Path 51" d="M45.418,3.172a4.468,4.468,0,0,1,2.5,1.237l1.332-2.672A6.4,6.4,0,0,0,45.135.13c-2.9,0-5.156,2.054-5.285,5.525h0c.129,3.489,2.346,5.534,5.285,5.534a6.4,6.4,0,0,0,4.15-1.573L47.919,6.893a4.468,4.468,0,0,1-2.5,1.237c-1.272,0-1.985-.791-2.062-2.492C43.416,3.963,44.147,3.172,45.418,3.172Z" transform="translate(-5.606 -0.018)" fill="#fff"/>
        <path id="Path_52" data-name="Path 52" d="M139.105,4.289l-.55-1.126h-.4V4.289h-.55V1.47h1.109a1.143,1.143,0,0,1,.387.069.962.962,0,0,1,.284.189.765.765,0,0,1,.18.275.859.859,0,0,1,.06.327.687.687,0,0,1-.043.275.6.6,0,0,1-.112.206.593.593,0,0,1-.163.163.859.859,0,0,1-.2.1l.636,1.212Zm-.129-2.226a.421.421,0,0,0-.292-.1h-.524V2.7h.524a.421.421,0,0,0,.292-.1.352.352,0,0,0,.1-.266.352.352,0,0,0-.1-.266" transform="translate(-19.36 -0.206)" fill="#fff"/>
        <path id="Path_53" data-name="Path 53" d="M138.334,5.242a2.621,2.621,0,1,1,2.578-2.578A2.578,2.578,0,0,1,138.334,5.242Zm0-4.821a2.2,2.2,0,1,0,2.2,2.2,2.2,2.2,0,0,0-2.2-2.2Z" transform="translate(-19.087 0.001)" fill="#fff"/>
      </g>
      <g id="Group_135" data-name="Group 135" transform="translate(26.345 0.026)" clip-path="url(#clip-path)">
        <path id="Path_54" data-name="Path 54" d="M81.98,26.191,99.869,10.866l10.483-.006V39.293H94.966L81.98,27.512Z" transform="translate(-81.986 -14.503)" fill="#ffcb05"/>
      </g>
    </g>
  </g>
</svg>
