<svg xmlns="http://www.w3.org/2000/svg" xmlns:xlink="http://www.w3.org/1999/xlink" width="64" height="64" viewBox="0 0 64 64">
  <defs>
    <clipPath id="clip-path">
      <rect id="Rectangle_14826" data-name="Rectangle 14826" width="64" height="64" rx="32" fill="#fff" stroke="#707070" stroke-width="1"/>
    </clipPath>
  </defs>
  <g id="Group_98632" data-name="Group 98632" clip-path="url(#clip-path)">
    <path id="Path_148857" data-name="Path 148857" d="M104.658,194.886" transform="translate(-82.586 -133.302)" fill="none" stroke="#707070" stroke-width="1"/>
    <g id="Group_96362" data-name="Group 96362" transform="translate(-233.123 -30.121)">
      <path id="Union_199" data-name="Union 199" d="M3.945,13.145a1.314,1.314,0,1,1,0-2.628H17.09a1.314,1.314,0,0,1,0,2.628ZM1.315,7.887A1.345,1.345,0,0,1,.384,7.5a1.315,1.315,0,0,1,.931-2.245h18.4a1.311,1.311,0,0,1,1.14.657,1.3,1.3,0,0,1,0,1.314,1.311,1.311,0,0,1-1.14.657Zm2.63-5.258A1.333,1.333,0,0,1,2.8,1.971,1.314,1.314,0,0,1,3.945,0H17.09a1.314,1.314,0,0,1,1.134,1.971,1.32,1.32,0,0,1-1.134.657Z" transform="translate(255.216 55.847)" fill="#20262e"/>
      <g id="Group_96359" data-name="Group 96359" transform="translate(249 46)">
        <path id="Union_1" data-name="Union 1" d="M18.17,28.563a1.3,1.3,0,1,1,0-2.6h5.192a2.6,2.6,0,0,0,2.6-2.6V18.177a1.3,1.3,0,0,1,2.6,0V23.37a5.193,5.193,0,0,1-5.192,5.193Zm-12.979,0A5.193,5.193,0,0,1,0,23.37V18.176a1.3,1.3,0,0,1,2.6,0V23.37a2.6,2.6,0,0,0,2.6,2.6h5.192a1.3,1.3,0,1,1,0,2.6ZM26.606,11.511a1.3,1.3,0,0,1-.649-1.124V5.193a2.6,2.6,0,0,0-2.6-2.6H18.17a1.3,1.3,0,1,1,0-2.6h5.192a5.193,5.193,0,0,1,5.192,5.193v5.194a1.3,1.3,0,0,1-1.947,1.124ZM1.3,11.684a1.3,1.3,0,0,1-1.3-1.3V5.193A5.193,5.193,0,0,1,5.192,0h5.192a1.3,1.3,0,0,1,0,2.6H5.192a2.6,2.6,0,0,0-2.6,2.6v5.194a1.3,1.3,0,0,1-1.3,1.3Z" transform="translate(2.452 2.112)" fill="#20262e"/>
        <rect id="Boundary" width="32" height="32" transform="translate(0.121 0.121)" fill="none"/>
      </g>
    </g>
  </g>
</svg>
