<svg xmlns="http://www.w3.org/2000/svg" xmlns:xlink="http://www.w3.org/1999/xlink" width="27.94" height="44.697" viewBox="0 0 27.94 44.697">
  <defs>
    <clipPath id="clip-path">
      <rect id="Rectangle_15221" data-name="Rectangle 15221" width="27.94" height="44.697" transform="translate(0 0)" fill="none"/>
    </clipPath>
  </defs>
  <g id="Group_100808" data-name="Group 100808" clip-path="url(#clip-path)">
    <path id="Path_152394" data-name="Path 152394" d="M163.887,317.706l2.315,1.321a.343.343,0,0,1,.048.562l-2.275,1.88a.343.343,0,0,1-.561-.26l-.04-3.2a.343.343,0,0,1,.513-.3" transform="translate(-152.279 -296.086)" fill="#ffbf00"/>
    <path id="Path_152395" data-name="Path 152395" d="M0,339.92v-21.4a.716.716,0,0,1,.73-.7H9.658a.716.716,0,0,1,.73.7v2.392a.716.716,0,0,1-.73.7H5.212a.716.716,0,0,0-.73.7v4.1a.716.716,0,0,0,.73.7h4.2a.716.716,0,0,1,.73.7v.117a15.7,15.7,0,0,1-1.248,2.484,1.914,1.914,0,0,1-1.088.492H5.212a.716.716,0,0,0-.73.7v4.65c0,.3-.175.517-.786,1.1-.2.189-1.5,1.637-1.689,1.833l-.983,1.093A.587.587,0,0,1,0,339.932Z" transform="translate(0 -296.234)" fill="#fff"/>
    <path id="Path_152396" data-name="Path 152396" d="M158.923,395.2V380.1a.953.953,0,0,1,.361-.649,10.366,10.366,0,0,1,1-.895l2.089-1.735a.631.631,0,0,1,1.03.5v13.494c0,.848-.008.9-.73,1.638l-2.695,3.124a.6.6,0,0,1-1.058-.358s0-.008,0-.012" transform="translate(-148.129 -351.089)" fill="#fff"/>
    <path id="Path_152397" data-name="Path 152397" d="M221.06,338.86v-17.6a.716.716,0,0,0-.73-.7H218.2a.716.716,0,0,1-.73-.7v-2.392a.716.716,0,0,1,.73-.7h10.209a.716.716,0,0,1,.73.7v2.392a.716.716,0,0,1-.73.7h-2.134a.716.716,0,0,0-.73.7v14.368c0,.756.144.7-.737,1.542-.28.269-1.03.706-1.321.962l-1.361,1.151a.642.642,0,0,1-1.064-.407s0-.008,0-.012" transform="translate(-202.697 -295.246)" fill="#fff"/>
    <path id="Path_152398" data-name="Path 152398" d="M16.48,67.233V82.388h-4.4V74.55L9.3,78.25l-2.744-3.7v7.839h-4.4V67.233h4.4L9.3,70.912l2.785-3.679Z" transform="translate(-2.008 -62.667)" fill="#fff"/>
    <path id="Path_152399" data-name="Path 152399" d="M250.277,77.454a3.9,3.9,0,0,0-.43-.972,4.924,4.924,0,0,0-.67-.858,3.6,3.6,0,0,0-.848-.648,4.122,4.122,0,0,0,1.089-1.421,3.987,3.987,0,0,0,.377-1.693,4.151,4.151,0,0,0-.272-1.474,3.966,3.966,0,0,0-.817-1.306,3.555,3.555,0,0,0-.7-.606,5.354,5.354,0,0,0-.88-.47,6.011,6.011,0,0,0-.964-.314,4.207,4.207,0,0,0-.953-.115H238.7V82.711h7.226a4.47,4.47,0,0,0,1.759-.345,4.862,4.862,0,0,0,1.435-.92,4.119,4.119,0,0,0,.963-1.348,4,4,0,0,0,.346-1.651,3.616,3.616,0,0,0-.147-.993m-7.058-6.637h.9a1.521,1.521,0,0,1,1.047.394,1.237,1.237,0,0,1,.44.954,1.268,1.268,0,0,1-.44.965,1.494,1.494,0,0,1-1.047.4h-.9Zm2.2,8.208a1.663,1.663,0,0,1-1.173.446h-1.151V76.44h1.151a1.663,1.663,0,0,1,1.173.446,1.427,1.427,0,0,1,0,2.138" transform="translate(-222.483 -62.987)" fill="#fff"/>
    <path id="Path_152400" data-name="Path 152400" d="M4.5,2.863l-.511.746H3.858l-.511-.746V4.187H2.561V1.6h.7l.664.928L4.586,1.6h.7V4.187H4.5Z" transform="translate(-2.387 -1.491)" fill="#fff"/>
    <path id="Path_152401" data-name="Path 152401" d="M50.515,3.076c0,.327.094.457.323.457s.331-.133.331-.457V1.6h.786V3.125a1,1,0,0,1-1.117,1.1.984.984,0,0,1-1.109-1.1V1.6h.786Z" transform="translate(-46.352 -1.491)" fill="#fff"/>
    <path id="Path_152402" data-name="Path 152402" d="M88.017,3.38a1.106,1.106,0,0,0,.574.206c.149,0,.248-.064.248-.188,0-.075-.043-.131-.173-.176l-.322-.113a.677.677,0,0,1-.539-.695.859.859,0,0,1,.975-.827,2.019,2.019,0,0,1,.833.169L89.4,2.38a1.264,1.264,0,0,0-.59-.18c-.149,0-.228.064-.228.165a.164.164,0,0,0,.134.165l.33.124c.429.158.6.372.6.706a.855.855,0,0,1-.96.853,2.088,2.088,0,0,1-.849-.188Z" transform="translate(-81.841 -1.48)" fill="#fff"/>
    <path id="Path_152403" data-name="Path 152403" d="M154.878,4.187V1.6h.786V3.529h1.026v.658Z" transform="translate(-144.359 -1.491)" fill="#fff"/>
    <path id="Path_152404" data-name="Path 152404" d="M186.671,4.187V1.6h1.9v.658h-1.152V2.57h.908v.616h-.908v.342h1.152v.658Z" transform="translate(-173.993 -1.491)" fill="#fff"/>
    <path id="Path_152405" data-name="Path 152405" d="M220.84,1.6h1.144c.539,0,.833.225.833.708a.574.574,0,0,1-.271.529.6.6,0,0,1,.452.635c0,.445-.31.715-.861.715h-1.3Zm.786.985h.2c.145,0,.2-.084.2-.209s-.055-.206-.193-.206h-.208Zm0,1.031h.354a.194.194,0,0,0,.2-.221c0-.133-.059-.228-.213-.228h-.342Z" transform="translate(-205.841 -1.491)" fill="#fff"/>
    <path id="Path_152406" data-name="Path 152406" d="M256.38,4.187V1.6h.786V3.529h1.026v.658Z" transform="translate(-238.967 -1.491)" fill="#fff"/>
    <path id="Path_152407" data-name="Path 152407" d="M287.7,1.6h.916l.818,2.587h-.782l-.11-.426h-.771l-.106.426h-.779Zm.259,1.605h.4l-.2-.856Z" transform="translate(-267.4 -1.491)" fill="#fff"/>
    <path id="Path_152408" data-name="Path 152408" d="M328.519,2.258h-.9V1.6h1.895v.521l-.884,1.407h.884v.658h-1.895V3.666Z" transform="translate(-305.371 -1.491)" fill="#fff"/>
    <path id="Path_152409" data-name="Path 152409" d="M360.151,4.187V1.6h1.9v.658H360.9V2.57h.908v.616H360.9v.342h1.152v.658Z" transform="translate(-335.69 -1.491)" fill="#fff"/>
    <path id="Path_152410" data-name="Path 152410" d="M119.524,21.676c-.292,0-.457-.185-.474-.587h-.812a1.218,1.218,0,0,0,1.214,1.3,1.446,1.446,0,0,0,.951-.369l-.3-.636a1.019,1.019,0,0,1-.574.29" transform="translate(-110.208 -19.657)" fill="#fff"/>
    <path id="Path_152411" data-name="Path 152411" d="M119.524,2.7c-.292,0-.457.186-.474.587h-.812a1.219,1.219,0,0,1,1.214-1.3,1.447,1.447,0,0,1,.951.369l-.3.636a1.021,1.021,0,0,0-.574-.29" transform="translate(-110.208 -1.846)" fill="#fff"/>
    <path id="Path_152412" data-name="Path 152412" d="M250.277,81.05a3.9,3.9,0,0,0-.43-.972,4.925,4.925,0,0,0-.67-.858,3.6,3.6,0,0,0-.848-.648,4.122,4.122,0,0,0,1.089-1.421,3.987,3.987,0,0,0,.377-1.693,4.151,4.151,0,0,0-.272-1.474,3.965,3.965,0,0,0-.817-1.306,3.555,3.555,0,0,0-.7-.606,5.353,5.353,0,0,0-.88-.47c-.147-.062-.3-.117-.444-.166L238.7,78.3v.873l7.933,7.079a4.324,4.324,0,0,0,1.052-.293,4.862,4.862,0,0,0,1.435-.92,4.119,4.119,0,0,0,.963-1.348,4,4,0,0,0,.346-1.651,3.616,3.616,0,0,0-.147-.993m-7.058-6.637h.9a1.521,1.521,0,0,1,1.047.394,1.237,1.237,0,0,1,.44.954,1.268,1.268,0,0,1-.44.965,1.494,1.494,0,0,1-1.047.4h-.9Zm2.2,8.208a1.662,1.662,0,0,1-1.173.446h-1.151V80.037h1.151a1.663,1.663,0,0,1,1.173.446,1.427,1.427,0,0,1,0,2.138" transform="translate(-222.483 -66.584)" fill="#ffbf00"/>
    <path id="Path_152413" data-name="Path 152413" d="M396.577,5.321l-.137-.279h-.1v.279H396.2v-.7h.275a.251.251,0,0,1,.1.017.218.218,0,0,1,.072.046.192.192,0,0,1,.045.068.224.224,0,0,1,.015.083.2.2,0,0,1-.01.067.186.186,0,0,1-.069.092.2.2,0,0,1-.049.025l.157.3Zm-.034-.553a.1.1,0,0,0-.072-.025h-.129v.184h.129a.1.1,0,0,0,.072-.025.1.1,0,0,0,0-.133" transform="translate(-369.296 -4.307)" fill="#fff"/>
    <path id="Path_152414" data-name="Path 152414" d="M390.907,1.3a.651.651,0,1,1,.652-.651.653.653,0,0,1-.652.651m0-1.2a.546.546,0,1,0,.547.546.547.547,0,0,0-.547-.546" transform="translate(-363.75 0)" fill="#fff"/>
  </g>
</svg>
